<svg width="27" height="26" viewBox="0 0 27 26" fill="none" xmlns="http://www.w3.org/2000/svg">
<g clip-path="url(#clip0_1_3638)">
<path d="M21.0025 13.0502C21.0025 8.60424 17.4205 5.00024 13.0025 5.00024C8.58249 5.00124 5.00049 8.60424 5.00049 13.0512C5.00049 17.0682 7.92649 20.3982 11.7505 21.0022V15.3772H9.72049V13.0512H11.7525V11.2762C11.7525 9.25924 12.9475 8.14524 14.7745 8.14524C15.6505 8.14524 16.5655 8.30224 16.5655 8.30224V10.2822H15.5565C14.5635 10.2822 14.2535 10.9032 14.2535 11.5402V13.0502H16.4715L16.1175 15.3762H14.2525V21.0012C18.0765 20.3972 21.0025 17.0672 21.0025 13.0502Z" fill="white"/>
</g>
<defs>
<clipPath id="clip0_1_3638">
<rect width="16" height="16" fill="white" transform="translate(5.50049 5.00024)"/>
</clipPath>
</defs>
</svg>
