<svg width="26" height="26" viewBox="0 0 26 26" fill="none" xmlns="http://www.w3.org/2000/svg">
<g clip-path="url(#clip0_1_3632)">
<path d="M13.0005 5.00024C10.8295 5.00024 10.5565 5.01024 9.70349 5.04824C8.85049 5.08824 8.26949 5.22224 7.76049 5.42024C7.22658 5.62106 6.74298 5.93607 6.34349 6.34324C5.93656 6.74294 5.6216 7.22648 5.42049 7.76024C5.22249 8.26824 5.08749 8.85024 5.04849 9.70024C5.01049 10.5552 5.00049 10.8272 5.00049 13.0012C5.00049 15.1732 5.01049 15.4452 5.04849 16.2982C5.08849 17.1502 5.22249 17.7312 5.42049 18.2402C5.62549 18.7662 5.89849 19.2122 6.34349 19.6572C6.78749 20.1022 7.23349 20.3762 7.75949 20.5802C8.26949 20.7782 8.84949 20.9132 9.70149 20.9522C10.5555 20.9902 10.8275 21.0002 13.0005 21.0002C15.1735 21.0002 15.4445 20.9902 16.2985 20.9522C17.1495 20.9122 17.7325 20.7782 18.2415 20.5802C18.7751 20.3793 19.2583 20.0643 19.6575 19.6572C20.1025 19.2122 20.3755 18.7662 20.5805 18.2402C20.7775 17.7312 20.9125 17.1502 20.9525 16.2982C20.9905 15.4452 21.0005 15.1732 21.0005 13.0002C21.0005 10.8272 20.9905 10.5552 20.9525 9.70124C20.9125 8.85024 20.7775 8.26824 20.5805 7.76024C20.3794 7.22647 20.0644 6.74292 19.6575 6.34324C19.2581 5.93592 18.7745 5.62089 18.2405 5.42024C17.7305 5.22224 17.1485 5.08724 16.2975 5.04824C15.4435 5.01024 15.1725 5.00024 12.9985 5.00024H13.0015H13.0005ZM12.2835 6.44224H13.0015C15.1375 6.44224 15.3905 6.44924 16.2335 6.48824C17.0135 6.52324 17.4375 6.65424 17.7195 6.76324C18.0925 6.90824 18.3595 7.08224 18.6395 7.36224C18.9195 7.64224 19.0925 7.90824 19.2375 8.28224C19.3475 8.56324 19.4775 8.98724 19.5125 9.76724C19.5515 10.6102 19.5595 10.8632 19.5595 12.9982C19.5595 15.1332 19.5515 15.3872 19.5125 16.2302C19.4775 17.0102 19.3465 17.4332 19.2375 17.7152C19.1092 18.0626 18.9045 18.3767 18.6385 18.6342C18.3585 18.9142 18.0925 19.0872 17.7185 19.2322C17.4385 19.3422 17.0145 19.4722 16.2335 19.5082C15.3905 19.5462 15.1375 19.5552 13.0015 19.5552C10.8655 19.5552 10.6115 19.5462 9.76849 19.5082C8.98849 19.4722 8.56549 19.3422 8.28349 19.2322C7.93599 19.1042 7.62161 18.8998 7.36349 18.6342C7.09724 18.3763 6.89221 18.0619 6.76349 17.7142C6.65449 17.4332 6.52349 17.0092 6.48849 16.2292C6.45049 15.3862 6.44249 15.1332 6.44249 12.9962C6.44249 10.8602 6.45049 10.6082 6.48849 9.76524C6.52449 8.98524 6.65449 8.56124 6.76449 8.27924C6.90949 7.90624 7.08349 7.63924 7.36349 7.35924C7.64349 7.07924 7.90949 6.90624 8.28349 6.76124C8.56549 6.65124 8.98849 6.52124 9.76849 6.48524C10.5065 6.45124 10.7925 6.44124 12.2835 6.44024V6.44224ZM17.2715 7.77024C17.1454 7.77024 17.0206 7.79508 16.9041 7.84332C16.7876 7.89156 16.6818 7.96228 16.5927 8.05142C16.5035 8.14057 16.4328 8.2464 16.3846 8.36287C16.3363 8.47934 16.3115 8.60418 16.3115 8.73024C16.3115 8.85631 16.3363 8.98115 16.3846 9.09762C16.4328 9.21409 16.5035 9.31992 16.5927 9.40907C16.6818 9.49821 16.7876 9.56892 16.9041 9.61717C17.0206 9.66541 17.1454 9.69024 17.2715 9.69024C17.5261 9.69024 17.7703 9.5891 17.9503 9.40907C18.1303 9.22903 18.2315 8.98485 18.2315 8.73024C18.2315 8.47564 18.1303 8.23146 17.9503 8.05142C17.7703 7.87139 17.5261 7.77024 17.2715 7.77024ZM13.0015 8.89224C12.4566 8.88374 11.9154 8.98373 11.4095 9.18639C10.9036 9.38904 10.443 9.69032 10.0546 10.0727C9.66627 10.455 9.35785 10.9108 9.14733 11.4135C8.93681 11.9162 8.82839 12.4557 8.82839 13.0007C8.82839 13.5457 8.93681 14.0853 9.14733 14.588C9.35785 15.0907 9.66627 15.5465 10.0546 15.9288C10.443 16.3112 10.9036 16.6124 11.4095 16.8151C11.9154 17.0178 12.4566 17.1177 13.0015 17.1092C14.08 17.0924 15.1087 16.6522 15.8655 15.8835C16.6222 15.1148 17.0464 14.0794 17.0464 13.0007C17.0464 11.9221 16.6222 10.8867 15.8655 10.118C15.1087 9.34933 14.08 8.90907 13.0015 8.89224ZM13.0015 10.3332C13.7088 10.3332 14.3872 10.6142 14.8873 11.1144C15.3875 11.6145 15.6685 12.2929 15.6685 13.0002C15.6685 13.7076 15.3875 14.3859 14.8873 14.8861C14.3872 15.3863 13.7088 15.6672 13.0015 15.6672C12.2942 15.6672 11.6158 15.3863 11.1156 14.8861C10.6155 14.3859 10.3345 13.7076 10.3345 13.0002C10.3345 12.2929 10.6155 11.6145 11.1156 11.1144C11.6158 10.6142 12.2942 10.3332 13.0015 10.3332Z" fill="white"/>
</g>
<defs>
<clipPath id="clip0_1_3632">
<rect width="16.0006" height="16.0003" fill="white" transform="translate(5.00049 5)"/>
</clipPath>
</defs>
</svg>
