<svg width="27" height="26" viewBox="0 0 27 26" fill="none" xmlns="http://www.w3.org/2000/svg">
<g clip-path="url(#clip0_1_3641)">
<path d="M10.0265 19.0009C16.0645 19.0009 19.3675 13.9979 19.3675 9.66694C19.3675 9.52694 19.3675 9.38494 19.3615 9.24494C20.0045 8.77942 20.5595 8.20309 21.0005 7.54294C20.3998 7.80779 19.7632 7.98234 19.1115 8.06094C19.798 7.65057 20.3122 7.00491 20.5585 6.24394C19.9135 6.62606 19.2075 6.89431 18.4715 7.03694C17.9767 6.50996 17.3219 6.16085 16.6086 6.04369C15.8953 5.92653 15.1632 6.04786 14.5258 6.38887C13.8884 6.72989 13.3813 7.27157 13.0829 7.93C12.7846 8.58843 12.7117 9.32687 12.8755 10.0309C11.5702 9.96549 10.2933 9.62641 9.12753 9.03568C7.96176 8.44495 6.93317 7.61578 6.10849 6.60194C5.68983 7.32502 5.56206 8.18034 5.75113 8.9942C5.94021 9.80807 6.43194 10.5195 7.12649 10.9839C6.60603 10.9663 6.09701 10.8265 5.64049 10.5759V10.6209C5.64139 11.3784 5.9038 12.1124 6.38336 12.6987C6.86293 13.285 7.53024 13.6878 8.27249 13.8389C7.99075 13.9166 7.69972 13.9552 7.40749 13.9539C7.20147 13.9546 6.99587 13.9355 6.79349 13.8969C7.00327 14.549 7.41176 15.1191 7.96174 15.5274C8.51171 15.9357 9.17562 16.1618 9.86049 16.1739C8.69704 17.0877 7.25989 17.5833 5.78049 17.5809C5.51981 17.582 5.25931 17.567 5.00049 17.5359C6.502 18.4932 8.24579 19.0015 10.0265 19.0009Z" fill="white"/>
</g>
<defs>
<clipPath id="clip0_1_3641">
<rect width="16" height="16" fill="white" transform="translate(5.50049 5.00024)"/>
</clipPath>
</defs>
</svg>
