<svg width="27" height="26" viewBox="0 0 27 26" fill="none" xmlns="http://www.w3.org/2000/svg">
<g clip-path="url(#clip0_1_3635)">
<path d="M14.0515 6.99927H14.1405C14.9625 7.00227 19.1275 7.03227 20.2505 7.33427C20.59 7.42644 20.8993 7.60609 21.1476 7.85528C21.396 8.10446 21.5745 8.41445 21.6655 8.75427C21.7665 9.13427 21.8375 9.63727 21.8855 10.1563L21.8955 10.2603L21.9175 10.5203L21.9255 10.6243C21.9905 11.5383 21.9985 12.3943 21.9995 12.5813V12.6563C21.9985 12.8503 21.9895 13.7643 21.9175 14.7163L21.9095 14.8213L21.9005 14.9253C21.8505 15.4973 21.7765 16.0653 21.6655 16.4833C21.5748 16.8232 21.3963 17.1334 21.148 17.3826C20.8996 17.6318 20.5901 17.8114 20.2505 17.9033C19.0905 18.2153 14.6815 18.2373 14.0705 18.2383H13.9285C13.6195 18.2383 12.3415 18.2323 11.0015 18.1863L10.8315 18.1803L10.7445 18.1763L10.5735 18.1693L10.4025 18.1623C9.29249 18.1133 8.23549 18.0343 7.74849 17.9023C7.40898 17.8105 7.09955 17.6311 6.85121 17.382C6.60287 17.133 6.42434 16.823 6.33349 16.4833C6.22249 16.0663 6.14849 15.4973 6.09849 14.9253L6.09049 14.8203L6.08249 14.7163C6.03314 14.0387 6.00579 13.3596 6.00049 12.6803L6.00049 12.5573C6.00249 12.3423 6.01049 11.5993 6.06449 10.7793L6.07149 10.6763L6.07449 10.6243L6.08249 10.5203L6.10449 10.2603L6.11449 10.1563C6.16249 9.63727 6.23349 9.13327 6.33449 8.75427C6.42518 8.41432 6.60365 8.10418 6.852 7.85495C7.10035 7.60572 7.40986 7.42616 7.74949 7.33427C8.23649 7.20427 9.29349 7.12427 10.4035 7.07427L10.5735 7.06727L10.7455 7.06127L10.8315 7.05827L11.0025 7.05127C11.9542 7.02064 12.9063 7.00364 13.8585 7.00027H14.0515V6.99927ZM12.4005 10.2093V15.0273L16.5575 12.6193L12.4005 10.2093Z" fill="white"/>
</g>
<defs>
<clipPath id="clip0_1_3635">
<rect width="16" height="16" fill="white" transform="translate(5.50049 5.00024)"/>
</clipPath>
</defs>
</svg>
